<svg xmlns="http://www.w3.org/2000/svg" width="225" height="224" viewBox="0 0 225 224" version="1.1"><path d="M 54.218 3.663 C 45.099 8.158, 42.735 20.905, 49.668 28.199 C 53.694 32.435, 57.200 34, 62.662 34 C 66.873 34, 67.897 34.464, 71.505 38.005 L 75.585 42.009 79.495 38.005 L 83.406 34 96.555 34 C 108.576 34, 109.994 33.805, 113.078 31.726 C 123.571 24.656, 123.738 10.196, 113.396 4.266 C 109.637 2.112, 108.583 2.033, 83.500 2.039 C 61.577 2.045, 56.985 2.299, 54.218 3.663 M 56.500 5.954 C 49.858 8.701, 46.990 18.474, 50.966 24.810 C 53.490 28.831, 58.323 31.003, 64.718 30.991 C 68.905 30.983, 69.834 31.387, 72.186 34.241 L 74.871 37.500 78.233 34.250 L 81.595 31 92.548 30.976 C 106.778 30.945, 110.684 29.994, 114.750 25.568 C 118.590 21.387, 119.082 16.287, 116.114 11.420 C 112.496 5.486, 109.913 4.993, 82.849 5.063 C 69.457 5.098, 57.600 5.499, 56.500 5.954 M 63.571 14.571 C 62.707 15.436, 62 16.941, 62 17.916 C 62 20.022, 65.031 23, 67.174 23 C 69.098 23, 72 19.839, 72 17.743 C 72 15.580, 69.280 13, 67 13 C 65.979 13, 64.436 13.707, 63.571 14.571 M 79.035 14.934 C 77.539 17.730, 77.754 19.467, 79.829 21.345 C 82.206 23.496, 84.291 23.440, 86.345 21.171 C 88.496 18.794, 88.440 16.709, 86.171 14.655 C 83.713 12.430, 80.304 12.563, 79.035 14.934 M 95.200 14.200 C 93.404 15.996, 93.752 19.465, 95.926 21.433 C 98.457 23.724, 101.077 23.118, 102.932 19.811 C 104.303 17.369, 104.271 16.957, 102.562 15.068 C 100.481 12.769, 97.037 12.363, 95.200 14.200 M 66 17.417 C 66 18.288, 66.713 19, 67.583 19 C 69.349 19, 69.042 16.847, 67.188 16.229 C 66.534 16.011, 66 16.546, 66 17.417 M 81.496 17.007 C 81.153 17.561, 81.596 18.292, 82.480 18.631 C 84.394 19.365, 85.461 18.556, 84.541 17.067 C 83.711 15.723, 82.306 15.696, 81.496 17.007 M 97.459 17.067 C 96.539 18.556, 97.606 19.365, 99.520 18.631 C 100.404 18.292, 100.847 17.561, 100.504 17.007 C 99.694 15.696, 98.289 15.723, 97.459 17.067 M 102.324 41.486 C 101.158 42.303, 99.164 45.478, 97.894 48.542 C 95.778 53.647, 95.373 54.059, 93.043 53.473 C 81.268 50.508, 53.218 44.833, 47.933 44.346 C 41.634 43.765, 41.221 43.867, 37.855 46.822 C 35.824 48.606, 33.834 51.609, 33.133 53.952 C 32.015 57.682, 31.644 58, 28.414 58 C 26.038 58, 24.128 58.781, 22.485 60.424 C 20.161 62.748, 20.078 63.295, 20.454 73.674 C 20.671 79.628, 22.672 102.275, 24.903 124 C 28.647 160.463, 29.123 163.635, 31.090 165.250 C 33.045 166.855, 36.707 167, 75.370 167 C 116.973 167, 117.536 167.027, 118.818 169.079 C 119.953 170.898, 119.780 171.600, 117.435 174.674 C 115.960 176.608, 113.571 178.624, 112.127 179.154 C 108.285 180.564, 83.590 211.158, 83.187 215.007 C 82.575 220.843, 91.678 226.233, 96.264 222.750 C 97.169 222.063, 103.770 214.340, 110.933 205.588 C 120.639 193.730, 123.838 189.145, 123.489 187.588 C 123.181 186.210, 124.129 184.218, 126.281 181.726 L 129.539 177.953 135.701 180.457 C 150.436 186.444, 164.441 185.950, 178.760 178.938 C 192.257 172.329, 202.659 159.333, 205.925 145 C 209.843 127.812, 204.179 108.833, 191.387 96.283 L 185.049 90.065 185.534 76.872 C 186.083 61.945, 185.365 59.635, 179.745 58.261 C 176.958 57.580, 175.991 56.425, 172.896 50.077 C 170.913 46.012, 168.465 42.082, 167.454 41.343 C 164.615 39.267, 105.307 39.397, 102.324 41.486 M 104.313 43.785 C 103.150 44.525, 98.677 54.011, 99.231 54.564 C 99.385 54.718, 108.509 56.709, 119.506 58.987 C 130.503 61.265, 147.304 64.900, 156.842 67.064 C 166.380 69.229, 176.193 71, 178.649 71 L 183.115 71 182.807 66.852 C 182.487 62.527, 181.542 61.551, 176.680 60.523 C 174.374 60.036, 173.299 58.704, 170.775 53.213 C 165.648 42.058, 168.937 42.998, 135.095 43.015 C 118.818 43.024, 104.966 43.370, 104.313 43.785 M 39.596 49.250 C 37.829 50.829, 36.322 54.241, 34.540 60.696 C 33.143 65.754, 32 70.141, 32 70.446 C 32 70.751, 35.518 71, 39.817 71 L 47.635 71 49.368 65.500 C 50.421 62.162, 51.672 60, 52.551 60 C 54.381 60, 54.380 61.672, 52.544 66.874 L 51.089 71 56.504 71 L 61.920 71 63.118 67 C 64.775 61.471, 67.500 61.471, 66.616 67 L 65.976 71 111.238 70.913 L 156.500 70.825 144 67.927 C 137.125 66.334, 118.900 62.345, 103.500 59.064 C 88.100 55.783, 69.489 51.726, 62.143 50.049 C 46.047 46.375, 42.934 46.265, 39.596 49.250 M 195.357 57.577 C 193.207 60.859, 194.414 64.814, 198.217 66.949 C 200.699 68.341, 201.126 68.297, 203.704 66.379 C 207.069 63.876, 207.717 60.744, 205.554 57.442 C 203.265 53.948, 197.687 54.022, 195.357 57.577 M 198.105 59.373 C 196.427 61.395, 197.853 64, 200.638 64 C 203.492 64, 204.743 61.600, 202.989 59.487 C 201.448 57.630, 199.588 57.586, 198.105 59.373 M 23.852 63.426 C 22.219 67.010, 23.542 71.209, 26.180 70.815 C 27.689 70.590, 28.642 69.302, 29.526 66.297 C 30.912 61.582, 30.668 61, 27.312 61 C 25.790 61, 24.566 61.858, 23.852 63.426 M 23.275 75.726 C 22.211 78.497, 30.994 160.121, 32.638 162.750 L 34.046 165 73.964 165 C 110.655 165, 117.366 164.581, 113.997 162.498 C 112.126 161.342, 108.014 152.157, 106.508 145.769 C 100.011 118.216, 115.588 91.627, 142.932 83.595 C 153.381 80.526, 168.032 81.899, 177.729 86.857 L 181.957 89.019 182.541 86.693 C 182.862 85.414, 182.984 82.147, 182.812 79.434 L 182.500 74.500 103.221 74.244 C 28.712 74.003, 23.902 74.093, 23.275 75.726 M 196.640 74.774 C 196.078 75.683, 193 88.612, 193 90.062 C 193 90.578, 193.658 91, 194.461 91 C 196.698 91, 200.104 75.800, 198.140 74.586 C 197.589 74.246, 196.914 74.330, 196.640 74.774 M 208.160 88.198 C 205.336 91.114, 203.019 94.063, 203.012 94.750 C 202.990 96.987, 205.542 96.072, 208.585 92.750 C 214.647 86.133, 215.390 84.990, 214.324 83.924 C 213.619 83.219, 211.679 84.564, 208.160 88.198 M 144.634 86.586 C 119.782 92.602, 103.342 119.083, 109.060 143.888 C 113.015 161.043, 128.298 176.439, 144.799 179.891 C 173.100 185.812, 198.854 168.144, 203.162 139.852 C 208.243 106.488, 177.606 78.606, 144.634 86.586 M 145.383 93.887 C 134.810 96.621, 124.672 105.247, 119.703 115.739 C 116.702 122.074, 116.500 123.195, 116.500 133.521 C 116.500 143.928, 116.681 144.909, 119.741 151.126 C 123.784 159.337, 130.822 166.075, 139.777 170.308 C 145.862 173.184, 147.406 173.486, 156.048 173.493 C 165.080 173.500, 166.009 173.296, 173.220 169.734 C 185.538 163.649, 193.393 153.333, 196.146 139.628 C 199.396 123.443, 189.093 103.935, 173.347 96.462 C 168.471 94.148, 165.922 93.636, 158 93.384 C 152.775 93.217, 147.097 93.444, 145.383 93.887 M 145.624 97.572 C 138.783 99.764, 134.236 102.867, 128.217 109.453 C 111.851 127.360, 118.195 156.231, 140.825 166.840 C 145.722 169.135, 147.803 169.500, 156 169.500 C 164.357 169.500, 166.250 169.154, 171.734 166.620 C 190.163 158.108, 197.890 136.183, 189.088 117.374 C 183.379 105.175, 171.496 97.223, 157.794 96.431 C 152.881 96.147, 148.908 96.520, 145.624 97.572 M 216.500 100.974 C 212.429 102.600, 209.365 104.445, 209.177 105.385 C 208.745 107.543, 209.556 107.443, 217.078 104.412 C 224.381 101.470, 225.837 100.419, 224.450 99.090 C 223.873 98.537, 220.749 99.278, 216.500 100.974 M 43.445 111.301 C 42.362 114.096, 46.601 118, 50.720 118 C 55.377 118, 61.025 112.370, 58.151 110.593 C 57.684 110.304, 56.337 111.178, 55.157 112.534 C 52.296 115.825, 48.687 115.711, 46.155 112.250 C 44.357 109.794, 44.068 109.692, 43.445 111.301 M 74.445 111.301 C 73.362 114.096, 77.601 118, 81.720 118 C 86.377 118, 92.025 112.370, 89.151 110.593 C 88.684 110.304, 87.337 111.178, 86.157 112.534 C 83.296 115.825, 79.687 115.711, 77.155 112.250 C 75.357 109.794, 75.068 109.692, 74.445 111.301 M 149.304 113.956 C 144.246 117.040, 140.999 123.777, 143.013 127.008 C 144.367 129.180, 147.216 127.104, 148.225 123.212 C 150.646 113.869, 164.400 115.814, 164.400 125.500 C 164.400 128.447, 163.763 129.784, 161.450 131.689 C 154.731 137.222, 154 138.195, 154 141.605 C 154 144.322, 154.395 145, 155.981 145 C 157.225 145, 158.181 144.128, 158.551 142.653 C 158.875 141.363, 161.114 138.656, 163.527 136.640 C 168.521 132.465, 170.242 128.007, 168.995 122.476 C 166.998 113.624, 156.967 109.284, 149.304 113.956 M 59.535 130.104 C 56.199 133.033, 54.884 136, 56.923 136 C 57.431 136, 59.196 134.650, 60.846 133 C 62.911 130.935, 64.829 130, 67 130 C 69.171 130, 71.089 130.935, 73.154 133 C 76.248 136.094, 78 136.794, 78 134.934 C 78 130.918, 72.363 127, 66.584 127 C 64.079 127, 62.055 127.891, 59.535 130.104 M 1.699 142.780 C -0.429 145.131, -0.464 147.892, 1.595 150.832 C 3.928 154.162, 9.856 153.544, 11.969 149.750 C 13.344 147.280, 13.344 146.720, 11.969 144.250 C 10.007 140.727, 4.297 139.910, 1.699 142.780 M 3.638 145.500 C 2.784 147.726, 3.970 150, 5.985 150 C 8.344 150, 10.186 147.648, 9.410 145.627 C 8.626 143.583, 4.409 143.491, 3.638 145.500 M 154.163 148.878 C 152.215 150.113, 153.130 154.409, 155.434 154.849 C 158.087 155.355, 160.229 152.296, 158.926 149.862 C 157.852 147.855, 156.287 147.532, 154.163 148.878 M 120.257 175.955 C 117.062 180.007, 116.690 181.498, 118.499 182.999 C 119.864 184.132, 120.500 183.837, 123.004 180.909 C 126.248 177.115, 126.558 175.958, 124.800 174.200 C 123.163 172.563, 122.831 172.692, 120.257 175.955 M 98.958 197.135 C 92.106 205.459, 86.143 212.878, 85.708 213.621 C 83.884 216.734, 90.404 222.993, 93.605 221.201 C 94.547 220.674, 101.093 213.326, 108.152 204.872 L 120.987 189.500 116.865 185.750 C 114.598 183.688, 112.444 182, 112.079 182 C 111.714 182, 105.810 188.811, 98.958 197.135" stroke="none" fill="#1b5c8f" fill-rule="evenodd"/></svg>